<svg xmlns="http://www.w3.org/2000/svg"
shape-rendering="geometricPrecision"
width="4000" height="4000" viewBox="0 0 1024 1024">
  <metadata>null</metadata>

<path d="
M 44.206 421.885
C 46.313 420.055 48.997 419.235 51.578 418.287
C 56.644 416.427 61.854 415.068 67.171 414.157
C 77.505 412.387 88.668 412.065 98.898 414.654
C 112.275 418.04 124.265 425.841 132.963 436.524
C 136.42 440.77 139.748 445.442 142.122 450.397
C 143.624 453.533 144.602 456.906 146.472 459.869
C 146.856 459.69 146.492 458.08 146.427 457.754
C 145.958 455.406 145.674 452.94 145.37 450.561
C 144.08 440.439 144.071 430.019 144.402 419.838
C 144.895 404.665 146.777 389.765 150.273 374.988
C 151.394 370.251 152.791 365.585 154.228 360.937
C 155.026 358.356 156.267 355.694 156.426 352.968
C 150.085 351.031 143.468 351.136 137.137 348.835
C 127.213 345.228 119.206 337.17 115.523 327.285
C 113.65 322.258 113.004 316.78 112.738 311.456
C 112.563 307.971 112.606 304.489 112.711 301.003
C 112.756 299.508 112.525 297.866 113.193 296.494
C 114.565 295.291 116.806 295.815 118.473 296.056
C 122.962 296.705 127.447 298.016 131.669 299.641
C 135.805 301.233 139.768 302.894 143.472 305.388
C 153.225 311.956 158.847 322.243 160.468 333.715
C 160.991 337.418 161.561 342.256 160.486 345.88
C 161.109 345.827 161.332 344.776 161.489 344.284
C 162.002 342.675 162.42 341.102 163.205 339.59
C 166.391 333.452 169.494 327.17 173.599 321.57
C 178.399 315.022 183.39 308.699 189.442 303.257
C 191.084 301.78 192.809 300.424 194.58 299.107
C 194.994 298.799 196.228 298.322 196.265 297.753
C 192.917 297.271 189.119 295.911 186.33 293.988
C 183.374 291.95 180.695 288.9 179.733 285.375
C 178.415 280.547 181.209 274.755 186.009 273.186
C 191.395 271.426 196.943 274.253 201.037 277.591
C 201.565 276.466 201.491 274.652 201.762 273.391
C 202.488 270.019 204.031 266.443 206.909 264.349
C 213.119 259.829 221.537 263.914 223.087 271.069
C 224.128 275.875 222.409 279.242 220.982 283.62
C 224.414 283.529 227.836 282.865 231.136 284.278
C 238.035 287.231 240.698 296.116 234.821 301.512
C 230.693 305.302 222.888 305.406 217.982 303.237
C 217.646 303.085 217.248 302.535 216.974 302.782
C 216.545 303.169 216.949 303.939 216.98 304.517
C 217.086 306.54 217.843 308.349 217.768 310.441
C 217.606 314.959 215.568 319.807 210.838 321.219
C 204.352 323.155 198.658 317.494 197.374 311.532
C 196.766 308.707 197.112 305.759 197.149 302.904
C 190.773 307.963 185.576 315.384 181.314 322.231
C 169.367 341.425 162.772 364.514 159.988 386.838
C 158.824 396.169 157.042 406.947 158.994 416.211
C 160.228 414.689 159.94 411.301 160.274 409.415
C 161.112 404.692 162.182 399.918 163.609 395.335
C 168.119 380.852 175.604 365.978 186.762 355.473
C 206.821 336.586 235.694 331.094 262.421 335.331
C 268.438 336.284 274.463 337.17 280.298 338.982
C 281.936 339.491 284.891 339.98 285.752 341.689
C 286.14 342.461 285.894 343.497 285.794 344.304
C 285.527 346.457 285.194 348.602 284.871 350.747
C 283.472 360.05 280.57 369.34 276.968 378.01
C 271.43 391.338 262.953 404.408 251.119 413.025
C 239.178 421.72 224.474 427.042 209.66 427.734
C 193.609 428.484 178.733 424.32 163.516 419.914
C 162.318 422.268 160.278 425.372 159.833 427.958
C 159.116 432.123 159.934 436.308 160.233 440.466
C 160.988 450.969 162.957 461.346 165.135 471.631
C 165.884 475.168 166.622 478.705 167.495 482.213
C 167.974 484.136 168.229 486.239 169.181 488.005
C 170.013 489.55 171.383 490.544 172.519 491.824
C 174.096 489.841 176.057 487.754 178.426 486.729
C 186.004 483.449 193.926 488.014 196.405 495.5
C 198.372 501.441 197.673 508.801 197.727 515
C 197.831 526.833 197.911 538.669 197.918 550.502
C 197.933 574.335 197.949 598.168 197.88 622.001
C 197.858 629.332 197.789 636.662 197.795 643.993
C 197.797 647.58 198.408 651.865 197.64 655.371
C 197.196 657.395 195.774 659.473 194.9 661.351
C 192.673 666.137 190.212 670.831 187.773 675.511
C 182.454 685.716 177.257 696.014 171.779 706.132
C 169.246 710.811 166.313 715.45 164.086 720.269
C 164.561 720.616 165.484 720.366 166.093 720.401
C 167.738 720.495 169.386 720.543 171.031 720.636
C 176.523 720.949 182.091 721.786 187.416 723.186
C 201.536 726.899 214.278 734.034 228.191 738.195
C 233.8 739.872 239.487 740.795 245.31 741.285
C 252.797 741.916 260.498 741.285 267.878 739.986
C 270.211 739.576 274.95 737.451 277.003 739.058
C 277.3 740.035 277.402 740.888 277.303 741.908
C 276.989 742.636 275.481 742.935 274.77 743.128
C 272.382 743.777 270.019 744.178 267.584 744.587
C 256.933 746.377 246.136 746.449 235.5 744.431
C 222.15 741.898 210.17 735.455 197.475 730.96
C 181.377 725.26 164.369 722.72 147.619 727.112
C 142.658 728.413 137.583 730.537 133.39 733.505
C 130.853 735.301 128.465 738.182 125.792 739.63
C 123.973 739.98 122.159 737.837 123.172 736.13
C 124.303 734.224 126.692 732.607 128.438 731.309
C 134.691 726.66 142.159 723.36 149.852 722.024
C 151.817 721.682 153.843 721.172 155.848 721.217
C 154.497 718.563 152.569 716.102 151.163 713.43
C 144.636 701.022 138.241 688.541 131.55 676.221
C 129.214 671.92 127.111 667.488 124.676 663.24
C 123.416 661.043 121.365 658.579 120.803 656.096
C 120.151 653.213 120.895 649.673 120.899 646.711
C 120.909 638.98 121.09 631.238 121.113 623.5
C 121.185 598.833 121.394 574.167 121.352 549.5
C 121.333 538.669 121.256 527.838 121.257 517.007
C 121.258 510.978 120.786 504.613 121.636 498.632
C 122.701 491.135 128.703 485.963 136.329 486.635
C 138.734 486.847 141.023 487.713 142.937 489.186
C 144.054 490.046 145.165 491.545 146.432 492.117
C 147.243 490.815 148.57 489.793 149.209 488.385
C 149.637 486.645 148.96 484.584 148.665 482.853
C 148.178 479.994 148.021 477.068 147.661 474.19
C 147.509 472.967 147.591 470.516 146.804 469.562
C 136.45 472.997 126.945 478.156 115.939 479.572
C 102.555 481.294 88.203 479.184 76.707 471.75
C 66.575 465.198 59.038 455.16 53.558 444.568
C 50.867 439.367 48.386 434.088 46.257 428.632
C 45.473 426.621 43.888 424.073 44.206 421.885 Z
M 49.959 423.893
C 49.767 424.037 49.575 424.18 49.383 424.324
C 55.081 437.878 60.701 452.278 71.88 462.459
C 78.878 468.833 87.757 473.645 97.151 475.198
C 106.25 476.702 115.406 475.504 124.263 473.256
C 130.324 471.718 136.835 469.482 142.017 465.919
C 141.44 464.866 140.095 464.066 139.182 463.312
C 136.62 461.194 134.039 459.225 131.18 457.517
C 120.047 450.864 107.715 446.691 94.965 444.441
C 92.31 443.972 89.568 443.758 86.881 443.548
C 85.399 443.432 83.707 443.56 82.33 442.957
C 81.446 441.956 81.451 440.435 82.183 439.353
C 83.78 438.356 85.962 438.765 87.734 439.007
C 91.293 439.492 94.817 439.921 98.341 440.647
C 108.566 442.755 118.703 445.515 127.941 450.516
C 131.344 452.359 134.552 454.694 137.732 456.889
C 139.098 457.832 140.304 459.168 141.793 459.911
C 141.467 458.016 140.19 456.181 139.314 454.493
C 137.145 450.311 134.795 446.276 132.02 442.47
C 122.078 428.825 107.184 419.695 90.383 417.587
C 83.256 416.693 75.873 417.36 68.817 418.469
C 62.562 419.453 55.636 420.996 49.959 423.893 Z
M 116.921 301.566
C 116.164 316.397 118.457 332.569 131.934 341.302
C 134.011 342.648 136.111 343.782 138.457 344.588
C 142.206 345.878 146.047 346.989 150.029 347.281
C 150.723 347.331 153.479 347.927 153.877 347.517
C 149.038 339.67 143.933 332.314 137.357 325.785
C 135.463 323.905 133.463 322.075 131.43 320.345
C 130.187 319.287 128.458 318.184 128.102 316.493
C 128.441 315.523 129.139 314.912 129.935 314.29
C 132.838 313.966 136.127 318.507 137.988 320.319
C 142.659 324.868 147.026 329.861 150.711 335.25
C 152.159 337.367 153.593 339.49 155.074 341.582
C 155.662 342.412 156.076 343.81 156.909 344.399
C 157.255 343.752 156.876 342.554 156.919 341.833
C 157.102 338.821 156.685 335.82 156.098 332.879
C 154.43 324.521 150.84 316.996 144.276 311.351
C 141.274 308.77 137.76 306.927 134.202 305.25
C 130.189 303.359 125.937 301.91 121.543 301.21
C 120.161 300.989 117.835 300.317 116.921 301.566 Z
M 125.964 499.598
C 124.994 507.721 125.724 516.323 125.72 524.499
C 125.713 540.165 125.758 555.831 125.766 571.496
C 125.774 587.829 125.799 604.165 125.672 620.497
C 125.624 626.626 125.652 632.753 125.648 638.881
C 125.646 641.952 125.379 645.097 125.674 648.156
C 126.112 648.547 126.852 647.779 127.301 647.501
C 128.791 646.577 130.415 646.268 132.153 646.221
C 134.392 646.16 136.797 646.487 138.777 647.592
C 140.065 648.31 141.086 649.528 142.432 650.118
C 141.834 613.901 142.243 577.647 142.69 541.428
C 142.821 530.786 142.793 520.143 142.846 509.5
C 142.862 506.395 142.937 503.29 142.954 500.185
C 142.962 498.8 143.218 497.019 142.68 495.716
C 141.02 491.694 135.302 489.492 131.457 491.749
C 128.423 493.53 126.712 496.229 125.964 499.598 Z
M 125.883 655.598
C 125.954 656.927 126.696 658.022 127.305 659.165
C 128.647 661.685 130.095 664.143 131.453 666.655
C 135.315 673.8 139.445 680.818 143.151 688.047
C 144.363 690.411 145.672 692.729 146.854 695.109
C 147.287 695.98 147.778 697.661 148.466 698.29
C 154.935 692.459 164.28 692.361 171 697.809
C 172.884 695.351 174.123 691.777 175.598 689.021
C 179.601 681.541 183.521 674.007 187.307 666.414
C 188.62 663.78 189.979 661.181 191.211 658.509
C 191.755 657.328 192.581 655.799 192.454 654.468
C 191.98 653.507 190.874 652.943 190.087 652.256
C 185.711 648.428 180.074 651.291 177.077 655.338
C 176.09 656.67 175.771 658.369 174.679 659.607
C 173.639 660.018 172.2 659.936 171.096 659.851
C 170.098 657.806 169.509 655.58 167.973 653.828
C 163.912 649.194 156.962 648.073 152.059 652.065
C 150.775 653.11 149.599 654.479 148.811 655.943
C 148.09 657.279 147.814 658.924 146.687 660.003
C 145.923 660.215 145.172 660.153 144.426 659.904
C 142.889 658.929 142.401 656.614 141.249 655.231
C 140.037 653.775 137.963 651.734 136.152 651.105
C 132.669 649.894 126.781 651.502 125.883 655.598 Z
M 146.592 650.168
C 146.569 650.338 146.546 650.509 146.524 650.679
C 146.441 650.965 148.479 648.869 148.932 648.53
C 150.648 647.246 152.593 646.124 154.652 645.502
C 161.197 643.523 166.258 646.223 171.185 650.218
C 171.36 650.098 171.015 648.397 170.997 648.139
C 170.848 646.008 171.088 643.829 171.105 641.692
C 171.175 632.964 171.224 624.234 171.237 615.505
C 171.283 584.064 171.255 552.625 170.914 521.187
C 170.856 515.793 170.753 510.399 170.76 505.005
C 170.764 502.645 171.342 499.451 170.647 497.185
C 170.426 496.462 169.672 495.872 169.194 495.312
C 167.668 493.522 166.291 491.751 163.937 491.089
C 158.125 489.455 150.126 491.682 148.04 498.079
C 147.175 500.731 147.705 504.303 147.685 507.071
C 147.638 513.382 147.617 519.692 147.599 526.003
C 147.521 552.671 146.802 579.329 146.792 605.997
C 146.789 615.664 146.745 625.331 146.743 634.998
C 146.741 639.933 147.326 645.286 146.592 650.168 Z
M 148.972 414.116
C 148.26 424.372 148.832 434.806 149.604 445.028
C 150.103 451.638 150.379 458.25 151.125 464.842
C 151.946 472.082 153.597 479.357 153.861 486.642
C 154.398 486.935 156.322 486.153 157 486.091
C 159.328 485.878 162.064 485.845 164.333 486.413
C 162.917 483.619 162.478 480.23 161.753 477.211
C 160.177 470.651 158.927 464.04 157.968 457.36
C 156.662 448.257 155.887 439.177 155.065 430.027
C 153.812 416.07 153.164 401.89 155.41 387.987
C 157.117 377.422 158.715 366.654 162.083 356.465
C 163.019 353.63 163.809 350.756 164.925 347.988
C 165.207 347.289 165.871 345.543 165.49 344.846
C 164.848 345.909 164.717 347.125 164.199 348.224
C 162.875 351.036 161.631 353.857 160.673 356.814
C 159.68 359.882 158.171 362.796 157.216 365.893
C 154.769 373.835 152.965 381.962 151.514 390.142
C 150.69 394.786 149.939 399.476 149.567 404.18
C 149.308 407.455 149.457 410.875 148.972 414.116 Z
M 165.492 407.591
C 165.398 408.101 165.375 408.526 165.427 409.044
C 166.598 408.75 168.023 406.116 168.845 405.223
C 172.102 401.683 175.491 398.269 179.086 395.068
C 192.07 383.506 206.776 373.678 223.518 368.389
C 227.135 367.247 230.778 366.216 234.47 365.338
C 236.178 364.932 238.283 364.313 239.994 364.927
C 240.919 366.048 241.551 367.12 240.849 368.533
C 238.889 370.068 235.626 370.077 233.242 370.625
C 228.674 371.674 224.181 373.011 219.835 374.773
C 204.743 380.892 190.996 389.842 179.194 401.075
C 174.645 405.404 169.385 410.473 166.592 416.18
C 168.866 417.486 172.056 418.03 174.592 418.695
C 179.643 420.018 184.656 421.362 189.822 422.172
C 211.423 425.56 234.978 421.362 251.879 406.717
C 262.239 397.741 269.76 385.453 274.227 372.601
C 276.545 365.93 278.589 359.226 279.877 352.274
C 280.299 350 281.484 346.385 280.92 344.118
C 277.667 342.445 273.687 341.842 270.125 341.196
C 265.259 340.314 260.446 339.635 255.529 339.157
C 236.733 337.329 216.674 340.055 200.5 350.416
C 180.96 362.935 169.659 385.366 165.492 407.591 Z
M 175.457 496.597
C 174.68 502.421 175.421 508.657 175.603 514.509
C 175.933 525.16 175.793 535.84 175.855 546.496
C 176.058 581.152 176.172 615.923 175.375 650.537
C 176.358 649.983 176.861 648.818 177.811 648.167
C 180.609 646.25 183.77 645.367 187.175 645.775
C 188.615 645.948 190.026 646.444 191.31 647.11
C 191.952 647.444 192.661 648.104 193.392 648.095
C 192.387 635.044 193.248 621.594 193.263 608.505
C 193.291 583.008 193.327 557.506 193.14 532.009
C 193.092 525.42 192.91 518.84 192.894 512.254
C 192.885 508.266 193.225 504.143 192.845 500.171
C 192.451 496.05 190.288 492.331 186.454 490.542
C 181.782 488.361 176.616 492.11 175.457 496.597 Z
M 183.977 282.622
C 184.043 288.4 190.058 291.877 195.015 292.975
C 195.992 293.192 197.822 294.043 198.761 293.823
C 198.78 292.183 199.077 289.754 200.056 288.387
C 200.72 287.46 201.686 286.797 202.389 285.911
C 202.062 284.928 201.426 283.911 200.896 283.023
C 199.551 282.198 198.527 281.193 197.312 280.207
C 193.901 277.438 187.029 275.01 184.511 280.105
C 184.124 280.889 184.05 281.762 183.977 282.622 Z
M 202.372 303.066
C 201.471 306.628 201.815 312.407 204.195 315.323
C 207.104 318.887 211.969 316.496 212.986 312.734
C 213.838 309.579 213.623 303.727 211.282 301.212
C 208.724 298.464 203.312 299.352 202.372 303.066 Z
M 203.852 291.562
C 203.794 292.524 203.751 293.448 203.883 294.408
C 205.09 295.074 207.405 295.241 208.751 295.001
C 211.372 293.315 210.836 289.067 207.476 288.779
C 206.157 289.164 204.801 290.02 203.977 291.123
C 203.935 291.269 203.893 291.416 203.852 291.562 Z
M 205.544 279.621
C 205.584 280.751 205.54 281.967 206.104 282.987
C 207.231 285.024 210.816 285.788 212.984 286.023
C 217.573 282.556 220.792 275.131 217.962 269.589
C 216.528 266.78 212.734 266.192 210.178 267.812
C 208.492 268.881 207.471 270.809 206.752 272.608
C 205.823 274.932 205.863 277.196 205.544 279.621 Z
M 214.868 292.064
C 214.413 294.159 214.807 296.249 215.845 298.13
C 217.443 299.254 220.403 299.576 222.309 299.841
C 224.097 300.089 225.988 300.289 227.774 299.939
C 232.378 299.036 236.21 294.146 232.167 289.974
C 228.157 285.835 216.988 286.084 214.868 292.064 Z"
opacity="1" fill="rgb(3,3,3)" fill-rule="evenodd" />
<path d="
M 49.959 423.893
C 55.636 420.996 62.562 419.453 68.817 418.469
C 75.873 417.36 83.256 416.693 90.383 417.587
C 107.184 419.695 122.078 428.825 132.02 442.47
C 134.795 446.276 137.145 450.311 139.314 454.493
C 140.19 456.181 141.467 458.016 141.793 459.911
C 140.304 459.168 139.098 457.832 137.732 456.889
C 134.552 454.694 131.344 452.359 127.941 450.516
C 118.703 445.515 108.566 442.755 98.341 440.647
C 94.817 439.921 91.293 439.492 87.734 439.007
C 85.962 438.765 83.78 438.356 82.183 439.353
C 81.451 440.435 81.446 441.956 82.33 442.957
C 83.707 443.56 85.399 443.432 86.881 443.548
C 89.568 443.758 92.31 443.972 94.965 444.441
C 107.715 446.691 120.047 450.864 131.18 457.517
C 134.039 459.225 136.62 461.194 139.182 463.312
C 140.095 464.066 141.44 464.866 142.017 465.919
C 136.835 469.482 130.324 471.718 124.263 473.256
C 115.406 475.504 106.25 476.702 97.151 475.198
C 87.757 473.645 78.878 468.833 71.88 462.459
C 60.701 452.278 55.081 437.878 49.383 424.324
C 49.575 424.18 49.767 424.037 49.959 423.893 Z"
opacity="1" fill="rgb(138,189,94)" fill-rule="evenodd" />
<path d="
M 116.921 301.566
C 117.835 300.317 120.161 300.989 121.543 301.21
C 125.937 301.91 130.189 303.359 134.202 305.25
C 137.76 306.927 141.274 308.77 144.276 311.351
C 150.84 316.996 154.43 324.521 156.098 332.879
C 156.685 335.82 157.102 338.821 156.919 341.833
C 156.876 342.554 157.255 343.752 156.909 344.399
C 156.076 343.81 155.662 342.412 155.074 341.582
C 153.593 339.49 152.159 337.367 150.711 335.25
C 147.026 329.861 142.659 324.868 137.988 320.319
C 136.127 318.507 132.838 313.966 129.935 314.29
C 129.139 314.912 128.441 315.523 128.102 316.493
C 128.458 318.184 130.187 319.287 131.43 320.345
C 133.463 322.075 135.463 323.905 137.357 325.785
C 143.933 332.314 149.038 339.67 153.877 347.517
C 153.479 347.927 150.723 347.331 150.029 347.281
C 146.047 346.989 142.206 345.878 138.457 344.588
C 136.111 343.782 134.011 342.648 131.934 341.302
C 118.457 332.569 116.164 316.397 116.921 301.566 Z"
opacity="1" fill="rgb(141,192,100)" fill-rule="evenodd" />
<path d="
M 125.964 499.598
C 126.712 496.229 128.423 493.53 131.457 491.749
C 135.302 489.492 141.02 491.694 142.68 495.716
C 143.218 497.019 142.962 498.8 142.954 500.185
C 142.937 503.29 142.862 506.395 142.846 509.5
C 142.793 520.143 142.821 530.786 142.69 541.428
C 142.243 577.647 141.834 613.901 142.432 650.118
C 141.086 649.528 140.065 648.31 138.777 647.592
C 136.797 646.487 134.392 646.16 132.153 646.221
C 130.415 646.268 128.791 646.577 127.301 647.501
C 126.852 647.779 126.112 648.547 125.674 648.156
C 125.379 645.097 125.646 641.952 125.648 638.881
C 125.652 632.753 125.624 626.626 125.672 620.497
C 125.799 604.165 125.774 587.829 125.766 571.496
C 125.758 555.831 125.713 540.165 125.72 524.499
C 125.724 516.323 124.994 507.721 125.964 499.598 Z"
opacity="1" fill="rgb(65,165,225)" fill-rule="evenodd" />
<path d="
M 125.883 655.598
C 126.781 651.502 132.669 649.894 136.152 651.105
C 137.963 651.734 140.037 653.775 141.249 655.231
C 142.401 656.614 142.889 658.929 144.426 659.904
C 145.172 660.153 145.923 660.215 146.687 660.003
C 147.814 658.924 148.09 657.279 148.811 655.943
C 149.599 654.479 150.775 653.11 152.059 652.065
C 156.962 648.073 163.912 649.194 167.973 653.828
C 169.509 655.58 170.098 657.806 171.096 659.851
C 172.2 659.936 173.639 660.018 174.679 659.607
C 175.771 658.369 176.09 656.67 177.077 655.338
C 180.074 651.291 185.711 648.428 190.087 652.256
C 190.874 652.943 191.98 653.507 192.454 654.468
C 192.581 655.799 191.755 657.328 191.211 658.509
C 189.979 661.181 188.62 663.78 187.307 666.414
C 183.521 674.007 179.601 681.541 175.598 689.021
C 174.123 691.777 172.884 695.351 171 697.809
C 164.28 692.361 154.935 692.459 148.466 698.29
C 147.778 697.661 147.287 695.98 146.854 695.109
C 145.672 692.729 144.363 690.411 143.151 688.047
C 139.445 680.818 135.315 673.8 131.453 666.655
C 130.095 664.143 128.647 661.685 127.305 659.165
C 126.696 658.022 125.954 656.927 125.883 655.598 Z"
opacity="1" fill="rgb(252,213,168)" fill-rule="evenodd" />
<path d="
M 146.592 650.168
C 147.326 645.286 146.741 639.933 146.743 634.998
C 146.745 625.331 146.789 615.664 146.792 605.997
C 146.802 579.329 147.521 552.671 147.599 526.003
C 147.617 519.692 147.638 513.382 147.685 507.071
C 147.705 504.303 147.175 500.731 148.04 498.079
C 150.126 491.682 158.125 489.455 163.937 491.089
C 166.291 491.751 167.668 493.522 169.194 495.312
C 169.672 495.872 170.426 496.462 170.647 497.185
C 171.342 499.451 170.764 502.645 170.76 505.005
C 170.753 510.399 170.856 515.793 170.914 521.187
C 171.255 552.625 171.283 584.064 171.237 615.505
C 171.224 624.234 171.175 632.964 171.105 641.692
C 171.088 643.829 170.848 646.008 170.997 648.139
C 171.015 648.397 171.36 650.098 171.185 650.218
C 166.258 646.223 161.197 643.523 154.652 645.502
C 152.593 646.124 150.648 647.246 148.932 648.53
C 148.479 648.869 146.441 650.965 146.524 650.679
C 146.546 650.509 146.569 650.338 146.592 650.168 Z"
opacity="1" fill="rgb(66,167,224)" fill-rule="evenodd" />
<path d="
M 148.972 414.116
C 149.457 410.875 149.308 407.455 149.567 404.18
C 149.939 399.476 150.69 394.786 151.514 390.142
C 152.965 381.962 154.769 373.835 157.216 365.893
C 158.171 362.796 159.68 359.882 160.673 356.814
C 161.631 353.857 162.875 351.036 164.199 348.224
C 164.717 347.125 164.848 345.909 165.49 344.846
C 165.871 345.543 165.207 347.289 164.925 347.988
C 163.809 350.756 163.019 353.63 162.083 356.465
C 158.715 366.654 157.117 377.422 155.41 387.987
C 153.164 401.89 153.812 416.07 155.065 430.027
C 155.887 439.177 156.662 448.257 157.968 457.36
C 158.927 464.04 160.177 470.651 161.753 477.211
C 162.478 480.23 162.917 483.619 164.333 486.413
C 162.064 485.845 159.328 485.878 157 486.091
C 156.322 486.153 154.398 486.935 153.861 486.642
C 153.597 479.357 151.946 472.082 151.125 464.842
C 150.379 458.25 150.103 451.638 149.604 445.028
C 148.832 434.806 148.26 424.372 148.972 414.116 Z"
opacity="1" fill="rgb(136,185,103)" fill-rule="evenodd" />
<path d="
M 165.492 407.591
C 169.659 385.366 180.96 362.935 200.5 350.416
C 216.674 340.055 236.733 337.329 255.529 339.157
C 260.446 339.635 265.259 340.314 270.125 341.196
C 273.687 341.842 277.667 342.445 280.92 344.118
C 281.484 346.385 280.299 350 279.877 352.274
C 278.589 359.226 276.545 365.93 274.227 372.601
C 269.76 385.453 262.239 397.741 251.879 406.717
C 234.978 421.362 211.423 425.56 189.822 422.172
C 184.656 421.362 179.643 420.018 174.592 418.695
C 172.056 418.03 168.866 417.486 166.592 416.18
C 169.385 410.473 174.645 405.404 179.194 401.075
C 190.996 389.842 204.743 380.892 219.835 374.773
C 224.181 373.011 228.674 371.674 233.242 370.625
C 235.626 370.077 238.889 370.068 240.849 368.533
C 241.551 367.12 240.919 366.048 239.994 364.927
C 238.283 364.313 236.178 364.932 234.47 365.338
C 230.778 366.216 227.135 367.247 223.518 368.389
C 206.776 373.678 192.07 383.506 179.086 395.068
C 175.491 398.269 172.102 401.683 168.845 405.223
C 168.023 406.116 166.598 408.75 165.427 409.044
C 165.375 408.526 165.398 408.101 165.492 407.591 Z"
opacity="1" fill="rgb(137,190,95)" fill-rule="evenodd" />
<path d="
M 175.457 496.597
C 176.616 492.11 181.782 488.361 186.454 490.542
C 190.288 492.331 192.451 496.05 192.845 500.171
C 193.225 504.143 192.885 508.266 192.894 512.254
C 192.91 518.84 193.092 525.42 193.14 532.009
C 193.327 557.506 193.291 583.008 193.263 608.505
C 193.248 621.594 192.387 635.044 193.392 648.095
C 192.661 648.104 191.952 647.444 191.31 647.11
C 190.026 646.444 188.615 645.948 187.175 645.775
C 183.77 645.367 180.609 646.25 177.811 648.167
C 176.861 648.818 176.358 649.983 175.375 650.537
C 176.172 615.923 176.058 581.152 175.855 546.496
C 175.793 535.84 175.933 525.16 175.603 514.509
C 175.421 508.657 174.68 502.421 175.457 496.597 Z"
opacity="1" fill="rgb(66,167,226)" fill-rule="evenodd" />
<path d="
M 183.977 282.622
C 184.05 281.762 184.124 280.889 184.511 280.105
C 187.029 275.01 193.901 277.438 197.312 280.207
C 198.527 281.193 199.551 282.198 200.896 283.023
C 201.426 283.911 202.062 284.928 202.389 285.911
C 201.686 286.797 200.72 287.46 200.056 288.387
C 199.077 289.754 198.78 292.183 198.761 293.823
C 197.822 294.043 195.992 293.192 195.015 292.975
C 190.058 291.877 184.043 288.4 183.977 282.622 Z"
opacity="1" fill="rgb(76,169,214)" fill-rule="evenodd" />
<path d="
M 202.372 303.066
C 203.312 299.352 208.724 298.464 211.282 301.212
C 213.623 303.727 213.838 309.579 212.986 312.734
C 211.969 316.496 207.104 318.887 204.195 315.323
C 201.815 312.407 201.471 306.628 202.372 303.066 Z"
opacity="1" fill="rgb(72,170,214)" fill-rule="evenodd" />
<path d="
M 205.544 279.621
C 205.863 277.196 205.823 274.932 206.752 272.608
C 207.471 270.809 208.492 268.881 210.178 267.812
C 212.734 266.192 216.528 266.78 217.962 269.589
C 220.792 275.131 217.573 282.556 212.984 286.023
C 210.816 285.788 207.231 285.024 206.104 282.987
C 205.54 281.967 205.584 280.751 205.544 279.621 Z"
opacity="1" fill="rgb(81,173,216)" fill-rule="evenodd" />
<path d="
M 214.868 292.064
C 216.988 286.084 228.157 285.835 232.167 289.974
C 236.21 294.146 232.378 299.036 227.774 299.939
C 225.988 300.289 224.097 300.089 222.309 299.841
C 220.403 299.576 217.443 299.254 215.845 298.13
C 214.807 296.249 214.413 294.159 214.868 292.064 Z"
opacity="1" fill="rgb(75,169,214)" fill-rule="evenodd" />
<path d="
M 226.432 482.098
C 227.506 473.85 236.04 468.4 243.972 471.133
C 248.586 472.724 251.866 476.597 253.398 481.174
C 254.459 484.342 253.889 488.208 253.897 491.499
C 253.912 498 253.891 504.5 253.929 511.001
C 254.06 533.829 253.843 556.661 253.823 579.489
C 253.815 588.581 255.863 600.474 245.641 604.953
C 244.168 605.599 242.567 605.917 240.972 606.078
C 239.415 606.235 237.672 605.953 236.161 605.57
C 234.835 605.234 233.656 604.618 232.498 603.904
C 224.248 598.818 226.302 587.765 226.291 579.508
C 226.261 557.339 226.238 535.171 226.341 513.002
C 226.371 506.504 226.339 500.007 226.281 493.509
C 226.246 489.733 225.944 485.851 226.432 482.098 Z
M 230.94 481.576
C 230.074 484.587 230.644 488.391 230.652 491.499
C 230.668 497.998 230.695 504.497 230.691 510.996
C 230.675 532.664 230.638 554.332 230.654 575.999
C 230.657 580.444 230.693 584.89 230.656 589.336
C 230.638 591.458 230.264 594.006 231.039 596.027
C 232.569 600.019 237.378 601.84 241.345 601.551
C 244.698 601.306 248.119 598.826 249.192 595.591
C 249.914 593.416 249.61 590.765 249.603 588.508
C 249.589 583.793 249.428 579.09 249.41 574.373
C 249.327 553.219 249.575 532.068 249.446 510.921
C 249.41 505.127 249.226 499.287 249.463 493.498
C 249.607 489.964 250.104 486.043 249.384 482.559
C 247.437 473.13 233.66 472.122 230.94 481.576 Z"
opacity="1" fill="rgb(3,3,4)" fill-rule="evenodd" />
<path d="
M 230.94 481.576
C 233.66 472.122 247.437 473.13 249.384 482.559
C 250.104 486.043 249.607 489.964 249.463 493.498
C 249.226 499.287 249.41 505.127 249.446 510.921
C 249.575 532.068 249.327 553.219 249.41 574.373
C 249.428 579.09 249.589 583.793 249.603 588.508
C 249.61 590.765 249.914 593.416 249.192 595.591
C 248.119 598.826 244.698 601.306 241.345 601.551
C 237.378 601.84 232.569 600.019 231.039 596.027
C 230.264 594.006 230.638 591.458 230.656 589.336
C 230.693 584.89 230.657 580.444 230.654 575.999
C 230.638 554.332 230.675 532.664 230.691 510.996
C 230.695 504.497 230.668 497.998 230.652 491.499
C 230.644 488.391 230.074 484.587 230.94 481.576 Z"
opacity="1" fill="rgb(68,167,228)" fill-rule="evenodd" />
<path d="
M 244.775 671.952
C 245.915 670.103 247.582 670.403 249.505 670.42
C 251.671 670.439 253.839 670.409 256.005 670.389
C 262.406 670.329 268.899 669.796 273.771 674.728
C 278.507 679.522 279.542 688.593 275.307 694.015
C 273.214 696.694 270.039 698.282 266.748 698.938
C 261.61 699.962 256.12 699.113 250.912 699.418
C 250.718 702.27 250.787 705.137 250.792 707.996
C 250.795 709.68 250.988 711.331 250.352 712.918
C 249.166 714.798 246.762 714.638 245.089 713.384
C 244.471 712.424 244.672 711.11 244.675 710.007
C 244.682 707.506 244.701 705.006 244.714 702.506
C 244.752 695.507 244.736 688.507 244.738 681.507
C 244.738 678.512 244.077 674.859 244.775 671.952 Z
M 250.836 676.365
C 250.527 680.05 250.696 683.799 250.713 687.495
C 250.722 689.51 250.431 691.733 250.718 693.716
C 254.318 693.399 258.078 693.688 261.699 693.658
C 263.43 693.644 265.554 693.773 267.131 692.912
C 273.196 689.6 273.07 680.239 266.963 676.965
C 265.482 676.172 263.448 676.293 261.816 676.258
C 258.17 676.18 254.467 676.085 250.836 676.365 Z"
opacity="1" fill="rgb(2,2,3)" fill-rule="evenodd" />
<path d="
M 263.007 557.618
C 263.253 554.369 263.244 551.175 263.781 547.943
C 265.174 539.566 268.857 531.22 274.222 524.638
C 292.126 502.674 327.734 500.061 347.883 520.519
C 355.801 528.559 361.392 540.567 361.818 551.918
C 362.036 557.711 360.941 563.9 355.175 566.647
C 352.718 567.817 349.961 567.716 347.301 567.676
C 343.619 567.62 339.943 567.443 336.264 567.427
C 321.799 567.365 307.301 567.646 292.846 567.409
C 292.079 569.068 294.436 571.503 295.449 572.73
C 299.014 577.046 304.72 580.302 310.222 581.279
C 315.972 582.3 322.221 581.62 327.441 578.951
C 332.249 576.492 336.107 572.229 341.883 572.42
C 351.383 572.733 358.278 582.657 353.651 591.382
C 352.037 594.427 349.287 596.772 346.506 598.711
C 339.888 603.323 331.594 605.95 323.629 606.915
C 305.902 609.064 286.93 604.19 274.99 590.137
C 271.619 586.17 268.907 581.503 266.911 576.706
C 264.352 570.556 263.37 564.213 263.007 557.618 Z
M 267.475 553.119
C 265.336 571.48 275.931 589.542 292.162 597.855
C 298.919 601.315 306.242 602.764 313.774 603.142
C 323.723 603.641 333.805 601.181 342.427 596.202
C 346.293 593.97 350.446 590.654 350.748 585.871
C 351.153 579.443 344.25 575.771 338.536 577.439
C 336.217 578.115 334.143 580.039 332.107 581.298
C 329.409 582.966 326.389 584.214 323.326 585.027
C 308.681 588.917 287.192 580.512 287.475 562.991
C 292.265 562.092 297.886 563.074 302.765 563.093
C 313.842 563.135 324.929 563.338 336.006 563.222
C 339.977 563.18 343.947 563.156 347.918 563.092
C 349.884 563.06 352.194 563.4 353.956 562.343
C 358.194 559.798 358.019 553.968 357.352 549.714
C 355.778 539.679 351.62 530.126 344.178 523.068
C 327.107 506.875 298.033 506.616 281.167 523.582
C 276.256 528.523 271.848 535.23 269.85 541.946
C 268.744 545.665 268.193 549.332 267.475 553.119 Z"
opacity="1" fill="rgb(3,3,4)" fill-rule="evenodd" />
<path d="
M 267.475 553.119
C 268.193 549.332 268.744 545.665 269.85 541.946
C 271.848 535.23 276.256 528.523 281.167 523.582
C 298.033 506.616 327.107 506.875 344.178 523.068
C 351.62 530.126 355.778 539.679 357.352 549.714
C 358.019 553.968 358.194 559.798 353.956 562.343
C 352.194 563.4 349.884 563.06 347.918 563.092
C 343.947 563.156 339.977 563.18 336.006 563.222
C 324.929 563.338 313.842 563.135 302.765 563.093
C 297.886 563.074 292.265 562.092 287.475 562.991
C 287.192 580.512 308.681 588.917 323.326 585.027
C 326.389 584.214 329.409 582.966 332.107 581.298
C 334.143 580.039 336.217 578.115 338.536 577.439
C 344.25 575.771 351.153 579.443 350.748 585.871
C 350.446 590.654 346.293 593.97 342.427 596.202
C 333.805 601.181 323.723 603.641 313.774 603.142
C 306.242 602.764 298.919 601.315 292.162 597.855
C 275.931 589.542 265.336 571.48 267.475 553.119 Z
M 287.464 547.596
C 287.36 548.517 287.442 549.339 287.616 550.244
C 290.597 550.833 293.973 550.468 297.005 550.466
C 302.588 550.464 308.172 550.475 313.756 550.449
C 319.334 550.422 324.918 550.621 330.503 550.61
C 332.954 550.605 335.551 550.879 337.978 550.485
C 339.059 549.268 338.118 546.028 337.646 544.7
C 335.854 539.653 332.56 535.189 327.985 532.354
C 316.429 525.192 299.637 527.027 291.462 538.514
C 289.502 541.268 288.243 544.33 287.464 547.596 Z"
opacity="1" fill="rgb(64,167,227)" fill-rule="evenodd" />
<path d="
M 284.447 684.594
C 285.062 681.711 287.367 681.111 290.041 681.824
C 290.585 682.972 290.844 684.188 291.053 685.427
C 293.748 683.652 295.434 681.341 298.976 681.255
C 302.137 681.178 305.193 683.416 302.645 686.667
C 301.335 687.982 298.684 687.581 296.964 687.807
C 294.681 688.107 292.064 690.323 291.208 692.448
C 290.523 694.149 290.764 696.201 290.761 697.996
C 290.756 701.33 290.728 704.666 290.772 708
C 290.799 710.07 291.21 712.777 289.237 714.119
C 287.958 714.454 286.213 714.375 285.227 713.421
C 284.039 711.231 284.703 707.45 284.675 705.009
C 284.62 700.089 284.662 695.17 284.636 690.25
C 284.627 688.366 284.32 686.471 284.447 684.594 Z"
opacity="1" fill="rgb(3,3,3)" fill-rule="evenodd" />
<path d="
M 287.464 547.596
C 288.243 544.33 289.502 541.268 291.462 538.514
C 299.637 527.027 316.429 525.192 327.985 532.354
C 332.56 535.189 335.854 539.653 337.646 544.7
C 338.118 546.028 339.059 549.268 337.978 550.485
C 335.551 550.879 332.954 550.605 330.503 550.61
C 324.918 550.621 319.334 550.422 313.756 550.449
C 308.172 550.475 302.588 550.464 297.005 550.466
C 293.973 550.468 290.597 550.833 287.616 550.244
C 287.442 549.339 287.36 548.517 287.464 547.596 Z
M 292.868 545.031
C 292.644 545.841 292.714 545.428 292.661 546.272
C 299.138 545.616 305.996 546.139 312.51 546.187
C 319.597 546.239 326.887 545.859 333.943 546.297
C 333.219 542.35 328.753 538.086 325.514 536.076
C 314.846 529.458 297.92 532.32 292.868 545.031 Z"
opacity="1" fill="rgb(4,6,8)" fill-rule="evenodd" />
<path d="
M 306.402 694.587
C 307.501 689.642 310.064 685.221 314.646 682.728
C 323.517 677.901 335.437 683.147 338.269 692.568
C 339.256 695.852 339.251 699.127 339.516 702.506
C 339.749 705.462 340.292 708.851 339.72 711.789
C 339.251 714.201 335.925 715.056 334.38 713.007
C 333.597 711.969 333.728 710.372 333.203 709.198
C 330.802 711.253 328.121 713.646 324.91 714.241
C 313.607 716.336 304.391 705.345 306.402 694.587 Z
M 312.391 695.077
C 311.483 699.619 313.177 704.933 317.293 707.341
C 322.905 710.625 331.063 707.564 332.436 701.001
C 333.334 696.705 332.212 691.719 328.643 688.901
C 322.55 684.091 313.874 687.663 312.391 695.077 Z"
opacity="1" fill="rgb(3,2,3)" fill-rule="evenodd" />
<path d="
M 345.499 696.105
C 346.095 693.307 346.594 690.779 348.21 688.339
C 352.408 681.999 361.317 679.386 368.352 682.392
C 370.471 683.297 373.095 684.409 374.369 686.446
C 375.208 687.789 374.54 689.893 373.079 690.463
C 370.119 691.461 369.15 688.89 366.805 687.75
C 363.59 686.187 358.787 686.816 355.972 688.911
C 348.418 694.533 351.457 707.082 360.712 708.608
C 365.098 709.33 367.785 707.383 370.847 704.611
C 372.382 704.618 374.696 705.773 375.489 707.12
C 374.449 712.488 366.284 714.559 361.713 714.445
C 352.337 714.21 344.273 705.636 345.499 696.105 Z"
opacity="1" fill="rgb(3,3,4)" fill-rule="evenodd" />
<path d="
M 366.965 552.615
C 368.349 541.749 372.266 532.249 379.049 523.629
C 384.762 516.369 393.647 511.072 402.463 508.578
C 417.162 504.421 433.505 506.11 446.397 514.634
C 451.007 517.682 454.865 521.752 458.24 526.091
C 461.309 530.036 463.509 535.03 465.191 539.708
C 468.333 548.449 467.949 557.877 467.931 567.007
C 467.918 573.84 467.938 580.672 467.896 587.505
C 467.857 593.949 467.625 600.5 461.317 604.127
C 456.877 606.679 449.934 606.656 445.93 603.219
C 444.807 602.255 443.759 601.112 442.992 599.839
C 442.803 599.524 442.426 598.448 442.149 598.356
C 437.184 601.938 432.254 604.399 426.317 605.995
C 421.817 607.205 417.166 607.229 412.562 606.963
C 385.081 605.372 364.15 579.959 366.965 552.615 Z
M 371.466 551.603
C 368.744 572.313 380.857 593.125 400.717 600.102
C 407.57 602.509 415.213 603.212 422.409 602.279
C 428.013 601.552 433.63 599.205 438.204 595.918
C 440.422 594.325 442.517 590.907 445.137 590.235
C 445.934 593.525 445.217 596.777 447.882 599.386
C 452.501 603.908 461.694 601.155 463.412 595.104
C 463.966 593.155 463.754 590.985 463.746 588.983
C 463.731 585.49 463.739 581.997 463.75 578.505
C 463.789 566.431 465.167 553.352 461.286 541.715
C 458.071 532.077 451.978 523.591 443.434 517.983
C 428.385 508.107 406.407 508.12 391.534 518.477
C 384.175 523.601 378.226 530.416 374.85 538.795
C 373.175 542.951 372.337 547.239 371.466 551.603 Z"
opacity="1" fill="rgb(3,3,5)" fill-rule="evenodd" />
<path d="
M 371.466 551.603
C 372.337 547.239 373.175 542.951 374.85 538.795
C 378.226 530.416 384.175 523.601 391.534 518.477
C 406.407 508.12 428.385 508.107 443.434 517.983
C 451.978 523.591 458.071 532.077 461.286 541.715
C 465.167 553.352 463.789 566.431 463.75 578.505
C 463.739 581.997 463.731 585.49 463.746 588.983
C 463.754 590.985 463.966 593.155 463.412 595.104
C 461.694 601.155 452.501 603.908 447.882 599.386
C 445.217 596.777 445.934 593.525 445.137 590.235
C 442.517 590.907 440.422 594.325 438.204 595.918
C 433.63 599.205 428.013 601.552 422.409 602.279
C 415.213 603.212 407.57 602.509 400.717 600.102
C 380.857 593.125 368.744 572.313 371.466 551.603 Z
M 390.447 553.609
C 389.858 560.865 391.171 568.514 395.555 574.496
C 404.693 586.964 424.199 589.072 435.722 578.744
C 441.841 573.259 444.111 565.709 445.045 557.856
C 445.462 554.349 444.617 550.065 443.45 546.767
C 440.937 539.667 436.406 533.763 429.476 530.53
C 412.537 522.628 391.939 535.217 390.447 553.609 Z"
opacity="1" fill="rgb(65,167,228)" fill-rule="evenodd" />
<path d="
M 377.926 683.571
C 378.093 682.969 377.988 683.282 378.251 682.635
C 379.288 681.284 382.678 681.18 384.205 681.679
C 383.765 679.508 383.486 675.064 384.528 673.031
C 385.736 670.674 388.742 670.781 389.999 673.061
C 391.115 675.087 390.424 679.51 390.178 681.75
C 392.557 682.202 395.615 680.832 397.836 682.145
C 398.54 682.953 398.894 683.737 398.876 684.824
C 398.604 685.818 398.04 686.664 397.066 687.07
C 394.857 687.251 392.613 686.899 390.397 686.923
C 389.426 691.649 390.261 697.136 390.255 701.95
C 390.253 703.664 389.818 706.042 391.065 707.436
C 392.739 709.308 395.898 707.713 397.884 708.977
C 399.031 710.843 399.334 712.947 397.053 714.016
C 395.748 714.35 394.324 714.34 392.985 714.279
C 386.974 714.006 384.461 709.783 384.361 704.184
C 384.261 698.577 384.947 692.647 384.194 687.091
C 381.302 687.144 377.515 687.457 377.926 683.571 Z"
opacity="1" fill="rgb(2,2,4)" fill-rule="evenodd" />
<path d="
M 390.447 553.609
C 391.939 535.217 412.537 522.628 429.476 530.53
C 436.406 533.763 440.937 539.667 443.45 546.767
C 444.617 550.065 445.462 554.349 445.045 557.856
C 444.111 565.709 441.841 573.259 435.722 578.744
C 424.199 589.072 404.693 586.964 395.555 574.496
C 391.171 568.514 389.858 560.865 390.447 553.609 Z
M 394.912 552.081
C 391.89 568.035 405.451 583.715 421.917 580.698
C 424.549 580.216 427.12 579.126 429.405 577.745
C 431.826 576.282 434.103 574.287 435.772 571.995
C 437.822 569.178 439.134 565.662 439.826 562.266
C 441.638 553.367 439.157 542.526 431.456 536.925
C 417.712 526.931 398.022 535.659 394.912 552.081 Z"
opacity="1" fill="rgb(3,3,5)" fill-rule="evenodd" />
<path d="
M 403.907 672.067
C 405.184 667.093 412.701 668.719 411.642 673.664
C 410.564 678.701 402.624 677.061 403.907 672.067 Z"
opacity="1" fill="rgb(5,5,5)" fill-rule="evenodd" />
<path d="
M 404.848 683.532
C 405.913 680.878 409.737 680.719 410.749 683.584
C 411.497 685.705 410.892 688.779 410.879 691.003
C 410.849 696.171 410.85 701.337 410.87 706.505
C 410.879 708.896 411.659 712.405 409.361 713.946
C 407.86 714.422 406.376 714.037 405.26 712.947
C 404.152 710.972 404.811 707.235 404.803 705.006
C 404.787 700.375 404.792 695.743 404.749 691.112
C 404.727 688.659 404.366 685.947 404.848 683.532 Z"
opacity="1" fill="rgb(1,1,2)" fill-rule="evenodd" />
<path d="
M 417.994 695.599
C 419.598 687.326 425.242 681.227 434.084 681.21
C 437.822 681.203 441.091 682.179 444.207 684.261
C 445.892 685.387 447.287 686.661 446.893 688.833
C 446.204 689.951 443.939 690.835 442.657 690.766
C 440.662 689.3 439.419 687.746 436.871 687.091
C 435.551 686.752 434.186 686.782 432.853 687
C 421.201 688.906 421.025 706.674 432.672 708.78
C 434.245 709.064 435.866 709.002 437.4 708.558
C 439.74 707.881 441.163 706.276 442.859 704.658
C 444.852 704.991 446.291 705.929 447.863 707.114
C 444.558 714.936 433.449 716.154 426.604 712.605
C 420.4 709.388 417.195 702.395 417.994 695.599 Z"
opacity="1" fill="rgb(5,4,5)" fill-rule="evenodd" />
<path d="
M 451.478 696.101
C 452.509 691.828 453.778 688.098 457.201 685.081
C 463.356 679.656 473.519 680.297 479.181 686.112
C 481.759 688.76 483.248 692.352 483.759 695.981
C 483.951 697.35 484.128 699.313 482.759 700.158
C 480.994 701.248 477.497 700.484 475.507 700.479
C 469.559 700.463 463.288 699.828 457.38 700.441
C 457.64 701.403 457.616 702.501 458.109 703.395
C 460.554 707.827 466.959 710.51 471.763 708.571
C 473.942 707.691 475.221 705.576 477.268 704.577
C 479.219 703.625 481.822 705.546 482.2 707.495
C 482.055 708.439 480.576 709.492 479.899 710.109
C 476.793 712.937 472.66 714.391 468.502 714.456
C 458.539 714.612 450.078 706.343 451.478 696.101 Z
M 457.897 694.582
C 457.84 694.826 457.783 695.071 457.726 695.315
C 460.325 695.768 463.363 695.359 466.007 695.339
C 469.791 695.31 473.641 695.599 477.414 695.284
C 477.599 694.585 477.195 693.677 476.984 692.995
C 476.021 689.876 472.742 687.266 469.543 686.883
C 464.044 686.225 459.633 689.453 457.897 694.582 Z"
opacity="1" fill="rgb(5,4,5)" fill-rule="evenodd" />
<path d="
M 480.482 518.607
C 481.026 515.038 482.798 511.706 485.875 509.635
C 492.274 505.328 503.47 507.647 506.136 515.436
C 509.472 513.371 512.269 510.837 515.967 509.228
C 524.956 505.317 539.893 504.874 543.882 515.938
C 544.389 517.344 544.687 518.819 544.742 520.314
C 544.967 526.449 541.35 532.501 534.929 533.65
C 531.047 534.345 527.04 533.556 523.125 534.317
C 517.594 535.392 512.19 539.184 509.762 544.328
C 507.513 549.092 507.923 554.37 507.926 559.507
C 507.93 567.84 508.023 576.172 507.961 584.506
C 507.92 589.947 508.772 596.094 505.3 600.728
C 498.823 609.375 483.377 606.775 481.038 595.922
C 480.243 592.233 480.601 588.249 480.588 584.498
C 480.566 578.163 480.553 571.828 480.55 565.493
C 480.545 555.159 480.409 544.836 480.366 534.503
C 480.344 529.24 480.029 523.853 480.482 518.607 Z
M 484.91 518.081
C 484.182 521.699 484.73 525.816 484.745 529.498
C 484.775 536.831 484.711 544.164 484.706 551.498
C 484.699 561.118 484.795 570.74 484.718 580.36
C 484.68 585.066 483.738 590.919 485.119 595.472
C 487.477 603.24 499.542 603.443 502.945 596.532
C 504.784 592.798 503.751 587.056 503.744 583.005
C 503.73 575.172 503.721 567.341 503.664 559.509
C 503.628 554.63 503.216 549.323 504.987 544.676
C 508.052 536.634 515.029 531.253 523.513 530.007
C 528.928 529.212 535.61 531.35 539.161 525.995
C 541.994 521.723 540.306 515.263 536.005 512.639
C 533.726 511.248 531.09 511.072 528.488 511.112
C 522.374 511.207 515.644 513.104 510.895 517.119
C 508.505 519.14 506.966 521.965 504.661 524.018
C 504.229 524.167 503.782 524.191 503.331 524.258
C 502.449 521.334 503.5 517.909 501.465 515.323
C 496.777 509.368 487.588 511.432 484.91 518.081 Z"
opacity="1" fill="rgb(3,4,5)" fill-rule="evenodd" />
<path d="
M 484.91 518.081
C 487.588 511.432 496.777 509.368 501.465 515.323
C 503.5 517.909 502.449 521.334 503.331 524.258
C 503.782 524.191 504.229 524.167 504.661 524.018
C 506.966 521.965 508.505 519.14 510.895 517.119
C 515.644 513.104 522.374 511.207 528.488 511.112
C 531.09 511.072 533.726 511.248 536.005 512.639
C 540.306 515.263 541.994 521.723 539.161 525.995
C 535.61 531.35 528.928 529.212 523.513 530.007
C 515.029 531.253 508.052 536.634 504.987 544.676
C 503.216 549.323 503.628 554.63 503.664 559.509
C 503.721 567.341 503.73 575.172 503.744 583.005
C 503.751 587.056 504.784 592.798 502.945 596.532
C 499.542 603.443 487.477 603.24 485.119 595.472
C 483.738 590.919 484.68 585.066 484.718 580.36
C 484.795 570.74 484.699 561.118 484.706 551.498
C 484.711 544.164 484.775 536.831 484.745 529.498
C 484.73 525.816 484.182 521.699 484.91 518.081 Z"
opacity="1" fill="rgb(66,166,228)" fill-rule="evenodd" />
<path d="
M 490.473 709.596
C 490.979 704.086 498.883 705.171 498.502 710.536
C 498.12 715.907 489.977 715.005 490.473 709.596 Z"
opacity="1" fill="rgb(4,4,3)" fill-rule="evenodd" />
<path d="
M 523.899 671.559
C 523.98 671.391 524.061 671.223 524.142 671.055
C 526.003 668.997 529.514 669.432 529.829 672.51
C 530.278 676.898 529.773 681.584 529.772 685.999
C 529.769 693.375 530.06 700.825 529.75 708.189
C 531.227 708.61 533.171 708.216 534.701 708.208
C 538.303 708.19 541.906 708.17 545.508 708.176
C 547.067 708.178 550.113 707.674 551.414 708.561
C 552.999 710.594 553.267 712.29 551.22 714.097
C 549.55 714.864 546.818 714.222 544.999 714.21
C 540.213 714.177 535.421 714.089 530.634 714.134
C 528.599 714.153 525.473 714.718 524.248 712.598
C 523.648 711.56 523.803 710.028 523.792 708.872
C 523.769 706.417 523.815 703.961 523.82 701.507
C 523.834 694.84 523.766 688.174 523.77 681.508
C 523.772 678.294 523.294 674.722 523.899 671.559 Z"
opacity="1" fill="rgb(2,2,3)" fill-rule="evenodd" />
<path d="
M 549.495 582.118
C 550.017 577.014 549.566 571.628 549.572 566.495
C 549.584 556.33 549.622 546.166 549.603 536.001
C 549.591 529.992 548.59 522.89 550.034 517.029
C 552.042 508.886 562.748 505.439 569.852 509.001
C 572.559 510.359 573.799 512.678 575.596 514.875
C 587.765 503.522 608.052 504.031 621.949 511.896
C 628.956 515.862 634.619 522.014 638.381 529.079
C 645.348 542.161 644.259 557.673 644.252 571.995
C 644.25 577.406 644.34 582.825 644.233 588.234
C 644.143 592.783 644.005 597.307 640.912 600.981
C 634.284 608.854 619.829 606.682 617.403 596.039
C 616.491 592.038 616.927 587.431 616.896 583.352
C 616.843 576.404 616.8 569.456 616.767 562.508
C 616.747 558.382 617.06 554.097 616.451 550.009
C 615.147 541.255 608.277 533.571 599.293 532.682
C 589.769 531.739 580.913 536.565 578.062 546.006
C 576.629 550.753 576.951 556.12 576.905 561.024
C 576.83 568.847 576.812 576.669 576.782 584.492
C 576.763 589.501 577.459 594.914 574.862 599.423
C 570.337 607.279 557.047 608.191 551.938 600.472
C 548.578 595.396 549.233 587.968 549.495 582.118 Z
M 553.986 519.611
C 553.603 525.377 553.923 531.224 553.949 537.001
C 553.983 544.666 553.791 552.33 553.767 559.996
C 553.746 566.629 553.825 573.263 553.759 579.897
C 553.714 584.437 553.372 589.063 553.749 593.592
C 554.427 601.744 566.103 604.126 570.812 597.875
C 574.084 593.531 572.722 586.146 572.742 581.005
C 572.77 573.838 572.767 566.671 572.768 559.505
C 572.769 555.288 572.419 550.843 573.361 546.705
C 575.453 537.516 582.532 530.31 591.878 528.593
C 594.941 528.03 598.09 528.144 601.152 528.637
C 610.699 530.175 617.767 537.562 620.184 546.682
C 621.34 551.046 621.071 555.739 621.112 560.209
C 621.18 567.639 621.219 575.067 621.238 582.497
C 621.247 586.324 621 590.23 621.362 594.045
C 622.071 601.504 631.705 603.188 636.847 599.158
C 639.941 596.733 639.95 593.012 639.929 589.438
C 639.898 583.959 639.861 578.48 639.857 573
C 639.852 564.301 640.675 555.3 639.459 546.659
C 637.765 534.61 631.666 523.242 621.26 516.62
C 617.923 514.497 614.309 512.991 610.486 511.974
C 601.74 509.646 592.173 509.983 584.018 514.125
C 580.926 515.694 578.587 517.925 576.177 520.366
C 575.227 521.328 574.091 523.042 572.555 522.776
C 572.172 519.333 572.435 516.4 569.613 513.882
C 564.233 509.083 555.287 513.01 553.986 519.611 Z"
opacity="1" fill="rgb(4,4,5)" fill-rule="evenodd" />
<path d="
M 553.986 519.611
C 555.287 513.01 564.233 509.083 569.613 513.882
C 572.435 516.4 572.172 519.333 572.555 522.776
C 574.091 523.042 575.227 521.328 576.177 520.366
C 578.587 517.925 580.926 515.694 584.018 514.125
C 592.173 509.983 601.74 509.646 610.486 511.974
C 614.309 512.991 617.923 514.497 621.26 516.62
C 631.666 523.242 637.765 534.61 639.459 546.659
C 640.675 555.3 639.852 564.301 639.857 573
C 639.861 578.48 639.898 583.959 639.929 589.438
C 639.95 593.012 639.941 596.733 636.847 599.158
C 631.705 603.188 622.071 601.504 621.362 594.045
C 621 590.23 621.247 586.324 621.238 582.497
C 621.219 575.067 621.18 567.639 621.112 560.209
C 621.071 555.739 621.34 551.046 620.184 546.682
C 617.767 537.562 610.699 530.175 601.152 528.637
C 598.09 528.144 594.941 528.03 591.878 528.593
C 582.532 530.31 575.453 537.516 573.361 546.705
C 572.419 550.843 572.769 555.288 572.768 559.505
C 572.767 566.671 572.77 573.838 572.742 581.005
C 572.722 586.146 574.084 593.531 570.812 597.875
C 566.103 604.126 554.427 601.744 553.749 593.592
C 553.372 589.063 553.714 584.437 553.759 579.897
C 553.825 573.263 553.746 566.629 553.767 559.996
C 553.791 552.33 553.983 544.666 553.949 537.001
C 553.923 531.224 553.603 525.377 553.986 519.611 Z"
opacity="1" fill="rgb(67,166,227)" fill-rule="evenodd" />
<path d="
M 555.501 696.607
C 555.742 694.916 555.84 693.125 556.452 691.514
C 559.145 684.424 566.313 680.893 573.559 681.36
C 581.185 681.851 590.243 690.258 587.696 698.606
C 586.563 701.034 583.168 700.266 581.006 700.264
C 574.525 700.258 568.023 700.305 561.547 700.133
C 562.47 706.347 569.659 711.201 575.786 708.632
C 578.053 707.681 579.638 704.969 581.946 704.311
C 583.582 704.448 586.28 705.389 585.883 707.448
C 584.348 712.077 578.259 713.657 574.124 714.432
C 563.54 716.415 554.763 706.739 555.501 696.607 Z
M 561.964 694.097
C 561.797 694.854 561.876 694.458 561.734 695.286
C 565.484 695.355 569.252 695.123 573.005 695.108
C 575.789 695.098 578.714 695.357 581.474 694.961
C 581.686 689.105 574.949 686.066 569.962 686.806
C 566.29 687.351 562.915 690.579 561.964 694.097 Z"
opacity="1" fill="rgb(5,4,5)" fill-rule="evenodd" />
<path d="
M 592.486 697.114
C 592.984 691.74 595.452 686.62 600.005 683.51
C 605.668 679.643 614.546 680.381 619.722 684.748
C 624.961 689.169 625.687 695.65 625.809 702.055
C 625.86 704.78 626.063 707.452 626.267 710.162
C 626.369 711.512 626.317 712.896 625.186 713.805
C 623.121 714.776 620.886 713.754 620.376 711.55
C 620.236 710.944 620.301 708.798 619.713 708.604
C 617.79 710.924 615.261 712.908 612.323 713.733
C 602.37 716.526 591.832 707.261 592.486 697.114 Z
M 598.901 695.077
C 597.976 699.357 599.525 704.256 603.216 706.748
C 609.008 710.658 617.373 707.516 618.935 700.668
C 620.14 695.387 617.8 689.143 612.446 687.085
C 606.541 684.816 600.164 689.232 598.901 695.077 Z"
opacity="1" fill="rgb(5,4,5)" fill-rule="evenodd" />
<path d="
M 634.384 683.556
C 635.229 680.987 637.279 681.134 639.553 681.427
C 640.399 682.409 640.756 683.737 640.909 685.001
C 642.174 684.207 643.061 682.878 644.406 682.157
C 647.004 680.765 654.317 680.058 653.348 684.815
C 653.029 685.681 652.658 686.579 651.868 687.108
C 649.435 687.513 646.974 686.932 644.695 688.16
C 638.369 691.569 640.349 700.53 640.339 706.496
C 640.336 708.38 641.107 712.116 639.505 713.481
C 636.779 715.804 634.408 712.706 634.318 710.147
C 634.117 704.445 634.356 698.707 634.352 693.002
C 634.349 689.944 633.856 686.571 634.384 683.556 Z"
opacity="1" fill="rgb(4,4,4)" fill-rule="evenodd" />
<path d="
M 646.929 516.581
C 648.412 511.337 652.672 507.794 658.304 508.346
C 657.75 505.655 658.355 502.098 658.682 499.382
C 660.271 486.183 668.037 475.231 680.854 470.99
C 690.485 467.802 705.591 467.703 708.62 479.994
C 710.381 487.143 705.359 494.455 698.297 495.926
C 695.433 496.523 691.639 495.161 689.134 496.926
C 685.376 499.574 685.994 504.229 685.689 508.181
C 689.865 507.962 694.876 507.415 698.716 509.414
C 705.77 513.086 708.066 523.836 702.178 529.711
C 699.831 532.053 695.981 533.333 692.74 533.267
C 690.935 533.231 687.515 532.503 685.942 533.376
C 685.613 540.225 686.011 547.152 686.101 553.998
C 686.223 563.293 685.962 572.601 685.954 581.904
C 685.948 588.566 687.41 596.921 682.21 602.103
C 675.316 608.974 661.138 606.643 658.801 596.507
C 657.346 590.196 658.216 582.947 658.227 576.508
C 658.251 562.046 658.985 547.452 658.458 533.009
C 656.904 532.756 655.25 532.703 653.801 532.031
C 647.964 529.321 645.529 522.67 646.929 516.581 Z
M 650.865 519.083
C 650.315 522.452 652.009 527.039 655.691 528.004
C 657.875 528.576 660.367 527.961 662.49 528.79
C 662.098 542.53 662.567 556.427 662.537 570.192
C 662.52 578.062 661.49 586.482 662.534 594.298
C 663.578 602.111 674.733 603.9 679.644 598.653
C 681.727 596.427 681.711 593.65 681.736 590.781
C 681.769 587.022 681.777 583.263 681.789 579.503
C 681.823 568.837 681.752 558.171 681.747 547.504
C 681.744 541.435 681.459 535.191 682.07 529.15
C 682.908 528.393 685.383 528.808 686.507 528.817
C 689.956 528.847 694.656 529.656 697.735 527.742
C 702.601 524.717 702.097 515.959 696.996 513.406
C 692.992 511.402 686.457 512.32 682.102 512.549
C 681.085 505.999 680.904 496.903 687.24 492.945
C 692.686 489.542 700.604 494.556 703.884 487.132
C 704.295 486.201 704.513 485.064 704.594 484.05
C 704.705 482.658 704.642 481.24 704.206 479.906
C 702.81 475.641 698.995 473.759 694.772 473.34
C 688.292 472.697 681.742 474.396 676.199 477.72
C 664.126 484.959 661.893 499.344 662.317 512.301
C 658.419 512.266 654.161 512.279 651.92 516.011
C 651.357 516.948 651.164 518.047 650.865 519.083 Z"
opacity="1" fill="rgb(4,5,4)" fill-rule="evenodd" />
<path d="
M 648.318 284.499
C 650.783 280.503 655.505 287.618 657.054 289.578
C 663.162 297.309 669.6 304.924 676.082 312.346
C 678.292 314.877 682.263 318.205 680.889 321.785
C 677.541 324.39 673.941 317.596 672.191 315.406
C 666.16 307.862 660.025 300.385 653.809 292.997
C 652.121 290.991 647.418 287.337 648.318 284.499 Z"
opacity="1" fill="rgb(5,5,5)" fill-rule="evenodd" />
<path d="
M 650.865 519.083
C 651.164 518.047 651.357 516.948 651.92 516.011
C 654.161 512.279 658.419 512.266 662.317 512.301
C 661.893 499.344 664.126 484.959 676.199 477.72
C 681.742 474.396 688.292 472.697 694.772 473.34
C 698.995 473.759 702.81 475.641 704.206 479.906
C 704.642 481.24 704.705 482.658 704.594 484.05
C 704.513 485.064 704.295 486.201 703.884 487.132
C 700.604 494.556 692.686 489.542 687.24 492.945
C 680.904 496.903 681.085 505.999 682.102 512.549
C 686.457 512.32 692.992 511.402 696.996 513.406
C 702.097 515.959 702.601 524.717 697.735 527.742
C 694.656 529.656 689.956 528.847 686.507 528.817
C 685.383 528.808 682.908 528.393 682.07 529.15
C 681.459 535.191 681.744 541.435 681.747 547.504
C 681.752 558.171 681.823 568.837 681.789 579.503
C 681.777 583.263 681.769 587.022 681.736 590.781
C 681.711 593.65 681.727 596.427 679.644 598.653
C 674.733 603.9 663.578 602.111 662.534 594.298
C 661.49 586.482 662.52 578.062 662.537 570.192
C 662.567 556.427 662.098 542.53 662.49 528.79
C 660.367 527.961 657.875 528.576 655.691 528.004
C 652.009 527.039 650.315 522.452 650.865 519.083 Z"
opacity="1" fill="rgb(137,188,101)" fill-rule="evenodd" />
<path d="
M 658.412 683.544
C 659.525 681.573 661.812 680.514 663.784 682.091
C 664.51 682.925 664.725 684.115 664.855 685.186
C 665.099 685.597 666.356 683.927 666.695 683.606
C 667.82 682.538 669.129 681.806 670.664 681.527
C 676.06 680.548 681.708 681.618 685.256 686.103
C 689.931 692.01 688.391 701.267 688.488 708.3
C 688.506 709.565 688.694 711.148 688.303 712.361
C 687.459 714.976 684.283 714.267 682.722 712.982
C 681.886 711.611 682.362 708.82 682.372 707.233
C 682.399 702.541 683.289 697.298 682.13 692.692
C 680.311 685.465 670.514 684.908 666.487 690.35
C 663.241 694.736 664.715 702.184 664.697 707.404
C 664.691 709.145 664.965 711.499 664.17 713.089
C 662.582 714.576 660.246 714.347 658.982 712.559
C 658.336 710.589 658.743 708.02 658.745 705.959
C 658.749 701.477 658.791 696.99 658.71 692.508
C 658.659 689.674 657.747 686.311 658.412 683.544 Z"
opacity="1" fill="rgb(5,4,5)" fill-rule="evenodd" />
<path d="
M 663.958 349.593
C 665.394 344.084 671.02 342.833 675.97 342.027
C 682.757 340.923 689.591 339.706 696.319 338.295
C 698.897 337.755 702.209 337.763 704.586 336.579
C 705.415 336.167 705.591 334.921 705.81 334.124
C 706.313 332.294 706.766 330.43 707.388 328.638
C 709.132 323.611 710.589 318.448 712.235 313.386
C 713.124 310.653 713.921 307.528 715.5 305.098
C 717.784 301.583 721.697 299.262 725.868 301.218
C 727.513 301.989 728.791 303.441 729.932 304.81
C 734.702 310.534 738.069 317.752 741.717 324.214
C 743.315 327.044 744.695 330.07 746.79 332.574
C 747.577 333.06 748.606 332.777 749.49 332.72
C 751.81 332.572 754.139 332.505 756.461 332.383
C 761.755 332.106 767.049 331.761 772.344 331.531
C 775.414 331.397 778.892 331.135 781.857 332.141
C 787.452 334.041 787.903 340.386 785.239 344.802
C 781.474 351.045 776.025 356.647 771.192 362.075
C 769.737 363.708 768.307 365.367 766.83 366.98
C 765.974 367.915 764.81 368.858 764.407 370.081
C 764.849 372.088 766.03 374.012 766.858 375.891
C 768.354 379.286 769.691 382.748 771.236 386.12
C 772.663 389.233 773.747 392.457 774.903 395.672
C 775.57 397.525 776.203 399.475 776.449 401.435
C 777.24 407.731 772.456 411.322 766.477 410.759
C 762.972 410.428 759.553 408.539 756.385 407.125
C 751.57 404.976 746.78 402.636 741.905 400.634
C 739.801 399.77 737.747 398.789 735.662 397.881
C 734.545 397.395 733.461 396.801 732.209 397.071
C 730.892 397.354 729.701 398.488 728.682 399.31
C 727.035 400.639 725.305 401.865 723.661 403.2
C 718.317 407.538 712.683 411.626 707.006 415.516
C 703.01 418.254 697.565 420.754 693.34 416.923
C 690.193 414.07 690.661 409.147 690.953 405.311
C 691.441 398.896 692.688 392.507 693.693 386.158
C 694.136 383.359 695.314 379.944 694.907 377.119
C 692.773 374.822 689.86 373.264 687.27 371.546
C 681.924 367.999 676.405 364.692 671.2 360.938
C 667.209 358.06 663.234 355.069 663.958 349.593 Z
M 668.878 350.019
C 667.237 353.472 673.148 356.672 675.402 358.11
C 681.387 361.927 687.506 365.65 693.275 369.792
C 695.282 371.233 698.37 372.805 699.515 375.097
C 700.821 377.71 699.542 381.921 699.043 384.627
C 697.84 391.147 696.684 397.855 696.084 404.459
C 695.854 406.99 694.211 413.415 698.025 414.068
C 701.315 414.632 705.148 411.185 707.569 409.32
C 713.075 405.076 718.642 400.909 724.158 396.676
C 726.368 394.979 729.001 392.139 731.976 392.148
C 735.498 392.158 738.472 393.952 741.622 395.34
C 745.232 396.931 748.918 398.369 752.468 400.093
C 755.334 401.484 758.129 403.194 761.119 404.305
C 763.699 405.264 769.688 407.965 771.461 404.455
C 772.764 401.875 770.708 398.011 769.878 395.544
C 767.773 389.28 764.757 383.274 762.057 377.25
C 760.995 374.879 758.993 371.888 759.514 369.154
C 760.047 366.355 763.28 363.662 765.091 361.615
C 769.51 356.619 774.264 351.794 778.189 346.389
C 779.803 344.166 783.995 339.889 781.131 337.235
C 778.967 335.23 774.294 336.258 771.597 336.392
C 765.236 336.71 758.885 337.314 752.534 337.607
C 749.844 337.731 746.249 338.116 743.929 336.492
C 741.307 334.656 739.857 330.893 738.428 328.141
C 735.644 322.783 732.59 317.518 729.429 312.374
C 727.971 310 725.442 304.406 721.936 305.286
C 718.848 306.062 718 311.495 717.086 314.083
C 714.897 320.282 713.085 326.68 711.103 332.951
C 710.286 335.535 709.55 339.14 707.122 340.728
C 704.614 342.37 700.936 342.421 698.055 342.955
C 691.865 344.101 685.657 345.24 679.429 346.176
C 676.498 346.617 670.394 346.829 668.878 350.019 Z"
opacity="1" fill="rgb(4,5,6)" fill-rule="evenodd" />
<path d="
M 668.878 350.019
C 670.394 346.829 676.498 346.617 679.429 346.176
C 685.657 345.24 691.865 344.101 698.055 342.955
C 700.936 342.421 704.614 342.37 707.122 340.728
C 709.55 339.14 710.286 335.535 711.103 332.951
C 713.085 326.68 714.897 320.282 717.086 314.083
C 718 311.495 718.848 306.062 721.936 305.286
C 725.442 304.406 727.971 310 729.429 312.374
C 732.59 317.518 735.644 322.783 738.428 328.141
C 739.857 330.893 741.307 334.656 743.929 336.492
C 746.249 338.116 749.844 337.731 752.534 337.607
C 758.885 337.314 765.236 336.71 771.597 336.392
C 774.294 336.258 778.967 335.23 781.131 337.235
C 783.995 339.889 779.803 344.166 778.189 346.389
C 774.264 351.794 769.51 356.619 765.091 361.615
C 763.28 363.662 760.047 366.355 759.514 369.154
C 758.993 371.888 760.995 374.879 762.057 377.25
C 764.757 383.274 767.773 389.28 769.878 395.544
C 770.708 398.011 772.764 401.875 771.461 404.455
C 769.688 407.965 763.699 405.264 761.119 404.305
C 758.129 403.194 755.334 401.484 752.468 400.093
C 748.918 398.369 745.232 396.931 741.622 395.34
C 738.472 393.952 735.498 392.158 731.976 392.148
C 729.001 392.139 726.368 394.979 724.158 396.676
C 718.642 400.909 713.075 405.076 707.569 409.32
C 705.148 411.185 701.315 414.632 698.025 414.068
C 694.211 413.415 695.854 406.99 696.084 404.459
C 696.684 397.855 697.84 391.147 699.043 384.627
C 699.542 381.921 700.821 377.71 699.515 375.097
C 698.37 372.805 695.282 371.233 693.275 369.792
C 687.506 365.65 681.387 361.927 675.402 358.11
C 673.148 356.672 667.237 353.472 668.878 350.019 Z
M 704.884 353.033
C 703.908 356.392 705.87 362.267 710.358 360.49
C 712.814 358.803 713.046 354.556 711.493 352.159
C 710.359 350.409 707.855 349.564 706.246 351.154
C 705.681 351.713 705.266 352.342 704.884 353.033 Z
M 716.855 366.105
C 717.395 372.196 724.284 376.552 730.041 376.279
C 734.211 376.08 738.221 373.829 740.574 370.385
C 741.987 368.316 743.503 365.695 743.319 363.093
C 743.167 360.931 740.193 360.633 739.082 362.11
C 737.949 364.483 737.683 366.737 735.759 368.735
C 732.948 371.653 728.257 372.255 724.81 369.979
C 722.708 368.591 721.373 366.458 719.974 364.431
C 718.821 364.268 718.012 364.352 717.086 365.116
C 716.798 365.749 716.873 365.419 716.855 366.105 Z
M 742.911 348.581
C 742.346 351.941 744.058 357.721 748.607 355.584
C 751.214 353.374 751.179 347.926 748.354 345.835
C 746.002 344.095 743.498 346.375 742.911 348.581 Z
M 744.335 390.559
C 744.317 391.252 744.266 390.934 744.449 391.517
C 745.459 392.883 747.394 393.499 748.866 394.252
C 752.386 396.054 756.041 397.72 759.78 399.005
C 761.467 399.585 764.057 399.927 765.074 398.019
C 766.007 396.269 765.057 394.15 764.341 392.522
C 763.052 389.596 761.533 386.744 760.083 383.894
C 759.269 382.296 758.653 380.439 757.544 379.026
C 756.54 379.234 755.373 379.273 754.927 380.354
C 755.308 384.224 758.554 388.6 760.379 391.977
C 760.67 392.515 762.073 395.189 761.293 395.568
C 757.071 394.865 753.462 392.223 749.678 390.387
C 748.476 389.804 747.332 388.999 745.992 388.797
C 745.059 389.029 744.624 389.681 744.335 390.559 Z"
opacity="1" fill="rgb(251,198,67)" fill-rule="evenodd" />
<path d="
M 696.783 708.469
C 698.96 703.125 707.236 706.8 704.844 711.767
C 702.591 716.444 694.772 713.408 696.783 708.469 Z"
opacity="1" fill="rgb(2,2,1)" fill-rule="evenodd" />
<path d="
M 704.884 353.033
C 705.266 352.342 705.681 351.713 706.246 351.154
C 707.855 349.564 710.359 350.409 711.493 352.159
C 713.046 354.556 712.814 358.803 710.358 360.49
C 705.87 362.267 703.908 356.392 704.884 353.033 Z"
opacity="1" fill="rgb(7,7,4)" fill-rule="evenodd" />
<path d="
M 706.99 519.599
C 707.682 516.019 709.183 512.578 712.111 510.236
C 717.604 505.841 726.432 506.509 730.859 512.069
C 734.39 516.504 736.021 522.722 738.012 527.955
C 741.603 537.394 745.282 546.884 749.217 556.183
C 750.465 559.132 751.595 562.166 752.695 565.174
C 753.184 566.512 753.541 568.775 754.563 569.757
C 755.276 565.907 757.17 562.084 758.432 558.377
C 761.592 549.094 765.053 539.895 768.491 530.712
C 769.987 526.717 771.259 522.642 772.803 518.666
C 773.728 516.285 774.474 513.858 776.082 511.822
C 784.264 501.467 800.583 509.881 800.461 521.9
C 800.421 525.786 798.284 529.561 796.886 533.093
C 794.449 539.248 791.987 545.39 789.474 551.516
C 782.94 567.448 777.085 583.67 770.439 599.558
C 766.551 608.851 763.564 618.796 757.093 626.705
C 750.864 634.317 741.711 639.044 731.928 639.888
C 727.645 640.257 723.384 640.014 719.683 637.5
C 712.082 632.337 712.433 619.88 720.804 615.636
C 724.598 613.713 729.916 615.133 733.315 612.656
C 735.664 610.945 739.739 606.122 739.454 603.032
C 739.264 600.967 737.715 598.886 736.939 596.988
C 735.165 592.651 733.412 588.309 731.619 583.98
C 725.771 569.869 719.948 555.741 714.284 541.558
C 712.777 537.783 711.322 533.921 709.653 530.218
C 708.188 526.968 706.436 523.252 706.99 519.599 Z
M 711.413 519.076
C 710.881 521.958 712.034 524.959 713.044 527.616
C 714.905 532.513 717.105 537.288 719 542.176
C 723.218 553.065 727.892 563.785 732.318 574.591
C 735.544 582.467 738.329 590.894 742.354 598.396
C 743 599.601 744.01 600.49 744.681 601.642
C 744.959 603.166 743.746 605.325 743.105 606.68
C 740.985 611.156 737.393 616.396 732.331 617.645
C 728.758 618.527 724.036 617.727 721.265 620.544
C 716.413 625.476 718.614 634.236 725.631 635.556
C 738.094 637.9 751.101 629.324 757.234 619.056
C 762.861 609.635 766.261 598.678 770.24 588.496
C 776.717 571.919 783.241 555.359 789.982 538.889
C 791.178 535.965 792.248 532.978 793.465 530.066
C 794.523 527.535 795.964 524.798 796.131 522.02
C 796.468 516.399 791.373 511.191 785.764 511.508
C 778.971 511.894 777.217 518.641 775.413 524.007
C 770.967 537.236 765.52 550.143 761.24 563.433
C 760.069 567.068 758.552 570.596 757.389 574.236
C 756.967 575.556 756.727 577.566 755.381 578.269
C 754.79 578.409 754.355 578.63 753.739 578.54
C 752.453 577.704 752.111 575.567 751.632 574.206
C 750.286 570.379 748.81 566.573 747.285 562.814
C 744.019 554.763 740.644 546.746 737.574 538.619
C 735.056 531.953 732.785 525.081 729.926 518.558
C 728.976 516.39 727.744 514.212 725.697 512.915
C 719.972 509.285 713.443 513.456 711.413 519.076 Z"
opacity="1" fill="rgb(4,4,3)" fill-rule="evenodd" />
<path d="
M 711.413 519.076
C 713.443 513.456 719.972 509.285 725.697 512.915
C 727.744 514.212 728.976 516.39 729.926 518.558
C 732.785 525.081 735.056 531.953 737.574 538.619
C 740.644 546.746 744.019 554.763 747.285 562.814
C 748.81 566.573 750.286 570.379 751.632 574.206
C 752.111 575.567 752.453 577.704 753.739 578.54
C 754.355 578.63 754.79 578.409 755.381 578.269
C 756.727 577.566 756.967 575.556 757.389 574.236
C 758.552 570.596 760.069 567.068 761.24 563.433
C 765.52 550.143 770.967 537.236 775.413 524.007
C 777.217 518.641 778.971 511.894 785.764 511.508
C 791.373 511.191 796.468 516.399 796.131 522.02
C 795.964 524.798 794.523 527.535 793.465 530.066
C 792.248 532.978 791.178 535.965 789.982 538.889
C 783.241 555.359 776.717 571.919 770.24 588.496
C 766.261 598.678 762.861 609.635 757.234 619.056
C 751.101 629.324 738.094 637.9 725.631 635.556
C 718.614 634.236 716.413 625.476 721.265 620.544
C 724.036 617.727 728.758 618.527 732.331 617.645
C 737.393 616.396 740.985 611.156 743.105 606.68
C 743.746 605.325 744.959 603.166 744.681 601.642
C 744.01 600.49 743 599.601 742.354 598.396
C 738.329 590.894 735.544 582.467 732.318 574.591
C 727.892 563.785 723.218 553.065 719 542.176
C 717.105 537.288 714.905 532.513 713.044 527.616
C 712.034 524.959 710.881 521.958 711.413 519.076 Z"
opacity="1" fill="rgb(137,188,100)" fill-rule="evenodd" />
<path d="
M 716.855 366.105
C 716.873 365.419 716.798 365.749 717.086 365.116
C 718.012 364.352 718.821 364.268 719.974 364.431
C 721.373 366.458 722.708 368.591 724.81 369.979
C 728.257 372.255 732.948 371.653 735.759 368.735
C 737.683 366.737 737.949 364.483 739.082 362.11
C 740.193 360.633 743.167 360.931 743.319 363.093
C 743.503 365.695 741.987 368.316 740.574 370.385
C 738.221 373.829 734.211 376.08 730.041 376.279
C 724.284 376.552 717.395 372.196 716.855 366.105 Z"
opacity="1" fill="rgb(6,8,5)" fill-rule="evenodd" />
<path d="
M 728.922 687.591
C 729.516 684.911 730.192 682.306 731.571 679.904
C 735.687 672.732 744.121 668.959 752.225 669.486
C 757.185 669.808 762.353 671.437 765.809 675.184
C 766.836 676.296 768.556 677.883 768.364 679.529
C 768.005 681.263 765.189 682.366 763.636 681.819
C 762.363 681.37 761.65 679.757 760.736 678.849
C 759.267 677.388 757.321 676.433 755.347 675.863
C 745.905 673.135 736.212 679.169 734.879 688.935
C 733.644 697.984 738.792 707.798 748.676 708.611
C 754.855 709.119 765.321 704.367 764.267 696.768
C 761.116 696.912 757.941 696.959 754.786 696.965
C 753.568 696.967 751.803 697.216 750.693 696.624
C 749.211 695.834 749.195 693.669 749.647 692.3
C 750.518 690.588 752.84 690.916 754.484 690.956
C 759.24 691.071 764.074 690.852 768.813 691.238
C 770.388 692.687 770.247 695.049 770.23 696.999
C 770.197 700.899 770.195 704.795 770.267 708.695
C 770.302 710.637 770.488 712.703 768.711 713.936
C 767.662 714.379 766.417 714.357 765.437 713.759
C 764.162 712.225 764.306 710.208 764.116 708.325
C 756.327 716.814 742.31 716.124 734.485 707.992
C 729.408 702.717 727.614 694.696 728.922 687.591 Z"
opacity="1" fill="rgb(3,3,4)" fill-rule="evenodd" />
<path d="
M 742.911 348.581
C 743.498 346.375 746.002 344.095 748.354 345.835
C 751.179 347.926 751.214 353.374 748.607 355.584
C 744.058 357.721 742.346 351.941 742.911 348.581 Z"
opacity="1" fill="rgb(2,2,1)" fill-rule="evenodd" />
<path d="
M 744.335 390.559
C 744.624 389.681 745.059 389.029 745.992 388.797
C 747.332 388.999 748.476 389.804 749.678 390.387
C 753.462 392.223 757.071 394.865 761.293 395.568
C 762.073 395.189 760.67 392.515 760.379 391.977
C 758.554 388.6 755.308 384.224 754.927 380.354
C 755.373 379.273 756.54 379.234 757.544 379.026
C 758.653 380.439 759.269 382.296 760.083 383.894
C 761.533 386.744 763.052 389.596 764.341 392.522
C 765.057 394.15 766.007 396.269 765.074 398.019
C 764.057 399.927 761.467 399.585 759.78 399.005
C 756.041 397.72 752.386 396.054 748.866 394.252
C 747.394 393.499 745.459 392.883 744.449 391.517
C 744.266 390.934 744.317 391.252 744.335 390.559 Z"
opacity="1" fill="rgb(6,9,6)" fill-rule="evenodd" />
<path d="
M 763.276 315.458
C 768.018 306.539 775.247 298.457 781.58 290.639
C 783.55 288.208 786.767 282.596 790.268 285.416
C 790.766 286.208 790.695 286.921 790.46 287.792
C 789.576 289.622 787.485 291.185 786.172 292.758
C 782.989 296.574 779.935 300.51 776.891 304.437
C 774.719 307.238 772.619 310.114 770.635 313.051
C 769.417 314.854 768.394 317.203 766.761 318.66
C 765.949 318.944 765.139 318.875 764.318 318.662
C 763.533 317.741 762.866 316.694 763.276 315.458 Z"
opacity="1" fill="rgb(3,4,3)" fill-rule="evenodd" />
<path d="
M 777.897 684.078
C 778.464 681.395 781.212 680.275 783.615 681.729
C 784.201 682.787 784.193 683.949 784.504 685.091
C 787.601 682.416 792.496 678.65 796.56 682.177
C 797.316 683.688 796.752 686.151 795.347 687.116
C 792.956 687.747 790.492 686.997 788.225 688.338
C 782.166 691.921 784.136 701.007 784.165 706.998
C 784.173 708.64 784.776 711.833 783.627 713.18
C 781.607 715.548 778.148 713.757 777.964 711.002
C 777.61 705.711 777.926 700.303 777.913 695
C 777.904 691.434 777.42 687.611 777.897 684.078 Z"
opacity="1" fill="rgb(3,3,2)" fill-rule="evenodd" />
<path d="
M 799.472 697.12
C 799.539 694.722 800.135 692.302 801.095 690.111
C 805.201 680.736 817.962 678.401 825.956 684.3
C 830.294 687.502 832.562 692.853 832.403 698.186
C 831.986 712.128 815.08 719.266 804.693 710.016
C 802.967 708.479 801.655 706.358 800.744 704.248
C 799.79 702.039 799.404 699.52 799.472 697.12 Z
M 805.908 695.081
C 805.182 699 806.267 703.964 809.561 706.458
C 815.509 710.963 824.379 707.706 825.86 700.388
C 826.686 696.303 825.405 691.307 822.002 688.71
C 815.968 684.104 807.269 687.732 805.908 695.081 Z"
opacity="1" fill="rgb(4,3,4)" fill-rule="evenodd" />
<path d="
M 806.92 517.584
C 807.623 514.144 809.758 510.908 812.853 509.171
C 819.274 505.566 829.91 507.39 832.656 515.007
C 833.261 515.151 834.265 513.925 834.763 513.527
C 836.711 511.971 838.916 510.653 841.156 509.568
C 849.41 505.568 862.97 504.45 868.643 513.141
C 873.251 520.2 870.14 529.974 862.65 533.417
C 859.304 534.954 855.02 534.001 851.447 534.325
C 845.328 534.879 839.058 538.712 836.408 544.324
C 834.383 548.612 835.017 552.345 834.582 556.855
C 833.704 565.933 834.584 575.377 834.398 584.506
C 834.278 590.387 835.108 596.419 830.964 601.205
C 823.96 609.291 809.245 606.055 807.001 595.433
C 806.146 591.381 806.702 586.634 806.693 582.507
C 806.675 574.008 806.771 565.508 806.78 557.009
C 806.79 548.174 806.684 539.341 806.687 530.506
C 806.688 526.322 806.103 521.701 806.92 517.584 Z
M 810.991 520.114
C 810.566 526.72 811.098 533.499 811.114 540.123
C 811.148 554.206 811.084 568.289 810.933 582.367
C 810.866 588.661 809.116 597.246 816.045 600.509
C 816.901 600.912 817.87 601.073 818.801 601.189
C 823.304 601.75 828.154 599.712 829.584 595.096
C 830.326 592.701 830.053 589.687 830.069 587.189
C 830.125 578.46 830.063 569.73 830.071 561.001
C 830.077 554.982 829.675 548.912 832.039 543.242
C 835.103 535.89 842.422 531.053 850.222 530.202
C 853.805 529.811 858.431 530.75 861.734 529.203
C 866.843 526.809 867.648 519.414 864.736 515.073
C 862.528 511.782 858.907 510.817 855.144 510.81
C 848.657 510.799 841.909 513.243 836.864 517.296
C 835.069 518.738 833.876 520.694 832.41 522.44
C 831.654 523.34 830.898 524.381 829.618 524.121
C 829.293 520.568 830.016 517.065 827.214 514.298
C 821.464 508.62 812.012 512.565 810.991 520.114 Z"
opacity="1" fill="rgb(4,4,3)" fill-rule="evenodd" />
<path d="
M 810.991 520.114
C 812.012 512.565 821.464 508.62 827.214 514.298
C 830.016 517.065 829.293 520.568 829.618 524.121
C 830.898 524.381 831.654 523.34 832.41 522.44
C 833.876 520.694 835.069 518.738 836.864 517.296
C 841.909 513.243 848.657 510.799 855.144 510.81
C 858.907 510.817 862.528 511.782 864.736 515.073
C 867.648 519.414 866.843 526.809 861.734 529.203
C 858.431 530.75 853.805 529.811 850.222 530.202
C 842.422 531.053 835.103 535.89 832.039 543.242
C 829.675 548.912 830.077 554.982 830.071 561.001
C 830.063 569.73 830.125 578.46 830.069 587.189
C 830.053 589.687 830.326 592.701 829.584 595.096
C 828.154 599.712 823.304 601.75 818.801 601.189
C 817.87 601.073 816.901 600.912 816.045 600.509
C 809.116 597.246 810.866 588.661 810.933 582.367
C 811.084 568.289 811.148 554.206 811.114 540.123
C 811.098 533.499 810.566 526.72 810.991 520.114 Z"
opacity="1" fill="rgb(137,188,101)" fill-rule="evenodd" />
<path d="
M 836.301 683.029
C 837.336 679.58 841.485 680.828 842.626 683.4
C 844.881 688.484 846.048 694.359 847.655 699.681
C 848.086 701.109 848.427 702.609 848.783 704.06
C 848.903 704.548 848.953 705.293 849.387 705.566
C 850.138 704.059 850.398 702.137 850.862 700.513
C 852.126 696.09 853.699 691.748 854.969 687.326
C 856.056 683.542 856.84 680.056 861.671 681.242
C 863.768 682.587 863.859 684.741 864.559 686.894
C 865.991 691.301 867.211 695.778 868.652 700.183
C 869.06 701.431 869.365 704.376 870.412 705.167
C 871.689 701.672 872.746 698.02 873.745 694.435
C 874.353 692.252 875.098 690.115 875.744 687.945
C 876.334 685.966 876.763 682.841 878.543 681.543
C 879.917 680.541 883.242 681.038 883.382 683.118
C 883.549 685.608 881.748 688.756 880.951 691.073
C 878.942 696.914 877.063 702.797 875.003 708.618
C 873.942 711.616 873.116 714.485 869.281 713.918
C 866.586 713.52 866.327 710.288 865.592 708.216
C 863.427 702.11 861.683 695.849 859.785 689.659
C 858.609 695.857 856.044 701.824 854.106 707.805
C 853.513 709.636 853.159 713.436 850.95 714.045
C 847.115 715.103 845.845 712.257 844.862 709.203
C 843.043 703.554 841.05 697.917 839.096 692.313
C 838.102 689.463 836.273 686.069 836.301 683.029 Z"
opacity="1" fill="rgb(3,2,3)" fill-rule="evenodd" />
<path d="
M 868.495 555.12
C 868.821 551.977 868.943 548.868 869.655 545.774
C 872.842 531.925 881.197 519.807 893.462 512.525
C 908.945 503.331 931.283 503.826 946.362 513.657
C 956.545 520.296 963.883 530.729 966.776 542.557
C 969.685 554.453 968.409 567.356 968.354 579.5
C 968.33 584.852 969.465 591.645 967.659 596.745
C 964.804 604.81 954.995 607.826 947.683 603.764
C 945.564 602.587 943.687 600.208 942.496 598.123
C 940.009 598.816 937.564 601.327 935.182 602.491
C 930.017 605.015 924.353 606.486 918.607 606.712
C 890.256 607.826 866.881 583.278 868.495 555.12 Z
M 872.958 551.598
C 868.584 579.196 893.327 605.059 920.955 602.074
C 925.275 601.607 929.593 600.304 933.514 598.447
C 937.923 596.357 940.908 593.599 944.022 589.936
C 944.603 589.925 945.219 589.924 945.788 590.04
C 946.45 592.916 945.526 596.116 947.704 598.465
C 952.117 603.227 961.919 601.55 963.709 595.127
C 965.119 590.07 964.12 583.725 964.163 578.507
C 964.262 566.539 965.609 553.368 961.991 541.794
C 959.731 534.564 956.071 527.795 950.51 522.554
C 934.898 507.837 909.237 506.434 891.901 518.916
C 883.482 524.977 877.8 533.72 874.726 543.545
C 873.899 546.187 873.579 548.91 872.958 551.598 Z"
opacity="1" fill="rgb(4,4,2)" fill-rule="evenodd" />
<path d="
M 872.958 551.598
C 873.579 548.91 873.899 546.187 874.726 543.545
C 877.8 533.72 883.482 524.977 891.901 518.916
C 909.237 506.434 934.898 507.837 950.51 522.554
C 956.071 527.795 959.731 534.564 961.991 541.794
C 965.609 553.368 964.262 566.539 964.163 578.507
C 964.12 583.725 965.119 590.07 963.709 595.127
C 961.919 601.55 952.117 603.227 947.704 598.465
C 945.526 596.116 946.45 592.916 945.788 590.04
C 945.219 589.924 944.603 589.925 944.022 589.936
C 940.908 593.599 937.923 596.357 933.514 598.447
C 929.593 600.304 925.275 601.607 920.955 602.074
C 893.327 605.059 868.584 579.196 872.958 551.598 Z
M 891.958 552.613
C 891.132 561.528 893.224 571.588 900.067 577.873
C 909.599 586.629 925.472 587.678 935.694 579.401
C 941.294 574.867 944.758 567.324 945.337 560.237
C 946.308 548.34 942.069 536.499 930.934 530.739
C 914.388 522.179 893.644 534.435 891.958 552.613 Z"
opacity="1" fill="rgb(136,187,99)" fill-rule="evenodd" />
<path d="
M 888.415 708.549
C 890.481 703.187 898.213 706.863 896.105 711.892
C 894.128 716.607 886.545 713.4 888.415 708.549 Z"
opacity="1" fill="rgb(2,2,1)" fill-rule="evenodd" />
<path d="
M 891.958 552.613
C 893.644 534.435 914.388 522.179 930.934 530.739
C 942.069 536.499 946.308 548.34 945.337 560.237
C 944.758 567.324 941.294 574.867 935.694 579.401
C 925.472 587.678 909.599 586.629 900.067 577.873
C 893.224 571.588 891.132 561.528 891.958 552.613 Z
M 896.482 552.598
C 895.569 559.119 896.766 566.589 900.855 571.927
C 908.994 582.552 925.547 583.479 934.861 573.9
C 938.288 570.376 940.186 565.28 940.823 560.464
C 941.994 551.606 939.096 541.346 931.357 536.17
C 917.374 526.818 898.744 536.424 896.482 552.598 Z"
opacity="1" fill="rgb(4,3,3)" fill-rule="evenodd" />

</svg>